<svg xmlns="http://www.w3.org/2000/svg" height="24" viewBox="0 -960 960 960" width="24"><path d="M480-195.5 460-214q-96.133-88.184-159.067-150.592Q238-427 201.716-473.902q-36.285-46.901-50.5-84.473Q137-595.947 137-633.5q0-69.505 47.498-117.002Q231.995-798 301.5-798q52.466 0 97.983 28.5t80.517 84q35.5-55.5 80.75-84T658.5-798q69.505 0 117.002 47.443Q823-703.114 823-633.692q0 37.73-14.216 75.309-14.215 37.58-50.464 84.424-36.249 46.845-98.901 109.366Q596.766-302.072 500-214l-20 18.5Zm0-34.5q94.822-86.573 156.353-147.983 61.531-61.41 97.339-106.714Q769.5-530 783.5-564.786t14-68.575q0-59.639-39.858-99.389-39.859-39.75-98.896-39.75-48.246 0-88.496 27.5-40.25 27.5-77.75 87h-25q-38.5-60.5-78.25-87.5t-87.996-27q-58.037 0-98.396 39.75Q162.5-693 162.5-633.309q0 33.82 14.07 68.638 14.07 34.817 49.75 79.994T323.5-378.25Q385-317 480-230Zm0-271.5Z"/></svg>